<svg width="41" height="37" viewBox="0 0 41 37" fill="none" xmlns="http://www.w3.org/2000/svg">
<g clip-path="url(#clip0_2_413)">
<path d="M7.77455 36.0242C6.50653 34.8763 6.43087 33.4168 6.53572 32.0631C6.70659 30.1822 7.08071 28.2991 7.63534 26.5219C10.4049 18.4019 15.8535 12.5404 23.4647 8.71524C25.4033 7.74961 27.5121 7.04555 29.7743 6.1484C28.1783 4.52507 25.77 4.08315 24.0309 2.49721C24.9224 2.00921 25.6672 2.3247 26.2916 2.56961C28.8496 3.58452 31.4201 4.64716 33.9553 5.77003C35.169 6.32005 35.4266 6.91587 34.7927 7.99968C33.5021 10.2753 31.6428 11.9343 29.25 12.9166C29.1546 12.9415 28.9741 12.8357 28.6857 12.707C28.6739 10.5167 31.4218 10.3087 31.9141 8.29277C28.4235 8.38869 25.4254 9.7842 22.5976 11.4413C19.6391 13.1835 16.8986 15.1748 14.6791 17.7951C12.4948 20.3552 10.9599 23.2558 9.63046 26.3576C8.24086 29.4242 7.70172 32.6256 7.77455 36.0242Z" fill="black"/>
</g>
<defs>
<clipPath id="clip0_2_413">
<rect width="28.3944" height="34.4457" fill="white" transform="translate(7.17773 36.1802) rotate(-104.644)"/>
</clipPath>
</defs>
</svg>
